<?xml version="1.0" encoding="utf-8"?> <!-- Generator: IcoMoon.io --> <!DOCTYPE svg PUBLIC "-//W3C//DTD SVG 1.1//EN" "http://www.w3.org/Graphics/SVG/1.1/DTD/svg11.dtd"> <svg fill="#333333" xmlns:xlink="http://www.w3.org/1999/xlink" xmlns="http://www.w3.org/2000/svg" viewBox="0 0 484 484" height="484" width="484"><path d="M 440,440c0,0-352,0-396,0s-44-44-44-44l0-154 l 110-198l 264,0 l 110,198c0,0,0,110,0,154S 440,440, 440,440z M 352,88L 132,88 l-77,154L 154,242 c0,0, 44,0, 44,44l0,22 l 88,0 l0-22 c0,0,0-44, 44-44l 99,0 L 352,88z M 440,286l-104.698,0 C 332.244,291.786, 330,298.716, 330,308c0,44-44,44-44,44L 198,352 c0,0-44,0-44-44 c0-9.284-2.244-16.214-5.302-22L 44,286 l0,110 l 396,0 L 440,286 z M 143,176l 198,0 L 352,198L 132,198 L 143,176z M 165,132l 154,0 L 330,154L 154,154 L 165,132z"></path></svg>