<?xml version="1.0" encoding="utf-8"?> <!-- Generator: IcoMoon.io --> <!DOCTYPE svg PUBLIC "-//W3C//DTD SVG 1.1//EN" "http://www.w3.org/Graphics/SVG/1.1/DTD/svg11.dtd"> <svg fill="#333333" xmlns:xlink="http://www.w3.org/1999/xlink" xmlns="http://www.w3.org/2000/svg" viewBox="0 0 416 448" height="448" width="416"><path d="M 212,424q0-4 -4-4q-14.75,0 -25.375-10.625t-10.625-25.375q0-4 -4-4t-4,4q0,18.25 12.875,31.125t 31.125,12.875q 4,0 4-4zM 45.75,352l 324.5,0 q-41-45.25 -61.625-102.875t-20.625-121.125q0-64 -80-64t-80,64q0,63.5 -20.625,121.125t-61.625,102.875zM 416,352q0,13 -9.5,22.5t-22.5,9.5 l-112,0 q0,26.5 -18.75,45.25t-45.25,18.75t-45.25-18.75t-18.75-45.25l-112,0 q-13,0 -22.5-9.5t-9.5-22.5q 47.5-40.25 71.75-99.375t 24.25-124.625q0-41.25 24-65.5t 66-29.25q-2-4.5 -2-9.25q0-10 7-17t 17-7t 17,7t 7,17q0,4.75 -2,9.25q 42,5 66,29.25t 24,65.5q0,65.5 24.25,124.625t 71.75,99.375z"></path></svg>