<?xml version="1.0" encoding="utf-8"?> <!-- Generator: IcoMoon.io --> <!DOCTYPE svg PUBLIC "-//W3C//DTD SVG 1.1//EN" "http://www.w3.org/Graphics/SVG/1.1/DTD/svg11.dtd"> <svg fill="#333333" xmlns:xlink="http://www.w3.org/1999/xlink" xmlns="http://www.w3.org/2000/svg" width="576" height="512" viewBox="0 0 576 512"><path d="M 544.00,450.583 C 544.00,473.333 557.014,493.037 576.00,502.675 L 576.00,510.644 C 570.687,511.371 565.264,511.756 559.75,511.756 C 525.746,511.756 495.076,497.492 473.389,474.624 C 460.278,478.115 446.388,480.00 432.00,480.00 C 352.471,480.00 288.00,422.692 288.00,352.00 C 288.00,281.308 352.471,224.00 432.00,224.00 C 511.529,224.00 576.00,281.308 576.00,352.00 C 576.00,379.674 566.118,405.296 549.322,426.233 C 545.91,433.645 544.00,441.889 544.00,450.583 ZM 256.00,0.00 C 395.229,0.00 508.496,90.307 511.918,202.76 C 487.327,191.80 460.125,186.00 432.00,186.00 C 384.22,186.00 339.092,202.723 304.931,233.089 C 269.508,264.575 250.00,306.806 250.00,352.00 C 250.00,374.336 254.772,395.944 263.868,415.894 C 261.254,415.957 258.634,416.00 256.00,416.00 C 242.422,416.00 229.095,415.133 216.088,413.478 C 161.099,468.467 95.463,478.328 32.00,479.776 L 32.00,466.318 C 66.268,449.529 96.00,418.948 96.00,384.00 C 96.00,379.123 95.621,374.335 94.918,369.652 C 37.02,331.52 0.00,273.275 0.00,208.00 C 0.00,93.125 114.615,0.00 256.00,0.00 Z" ></path></svg>