<?xml version="1.0" encoding="utf-8"?> <!-- Generator: IcoMoon.io --> <!DOCTYPE svg PUBLIC "-//W3C//DTD SVG 1.1//EN" "http://www.w3.org/Graphics/SVG/1.1/DTD/svg11.dtd"> <svg fill="#333333" xmlns:xlink="http://www.w3.org/1999/xlink" xmlns="http://www.w3.org/2000/svg" width="512" height="512" viewBox="0 0 512 512"><path d="M 384.00,207.968l0.00-32.00 c0.00-8.848-7.152-16.00-16.00-16.00L 16.00,159.968 c-8.848,0.00-16.00,7.152-16.00,16.00l0.00,224.016 c0.00,2.88, 0.976,5.424, 2.288,7.76C 13.44,467.072, 65.44,512.00, 128.00,512.00l 128.00,0.00 c 40.336,0.00, 76.096-18.832, 99.536-48.00L 384.00,464.00 c 70.688,0.00, 128.00-57.328, 128.00-128.016 C 512.00,265.28, 454.688,207.968, 384.00,207.968z M 384.00,399.984l0.00-128.016 c 35.344,0.00, 64.00,28.656, 64.00,64.016C 448.00,371.328, 419.344,399.984, 384.00,399.984z M 83.168,136.064 c-2.384,4.32-2.112,7.888, 2.432,7.888c 4.512,0.00, 10.704-3.584, 12.256-7.856c 15.888-41.424-67.552-75.104-17.136-126.192 C 85.888,4.608, 87.984,0.032, 83.408,0.00C 78.816-0.048, 69.392,4.32, 64.432,9.472C 15.856,59.376, 105.76,94.448, 83.168,136.064z M 143.60,136.256 C 143.008,140.384, 145.536,143.952, 150.032,143.952c 4.464,0.00, 8.80-3.568, 9.248-7.664c 3.536-29.664-20.176-56.88-5.936-82.544 c 0.224-4.64-5.232-9.248-12.304-9.872c-7.056-0.64-13.344,2.864-13.584,7.472C 125.744,84.816, 147.776,106.176, 143.60,136.256z M 214.432,143.952 c 4.464,0.00, 8.00-3.568, 8.848-7.52c 8.112-38.336, 74.368-50.144, 24.416-118.608c-5.344-7.072-14.832-13.568-19.424-13.632 c-4.608-0.08-5.008,6.24-1.952,13.232c 49.712,46.912, 1.984,80.576-19.152,119.008C 206.464,140.384, 209.984,143.952, 214.432,143.952z M 278.864,143.952c 4.48,0.00, 7.488-3.60, 8.784-7.808c 12.16-40.688, 149.424-66.992, 34.00-122.992c-12.032-5.696-27.648-10.464-31.056-10.272 c-3.472,0.24, 4.704,6.144, 14.976,12.592c 94.352,61.84, 6.432,43.184-33.904,120.80C 270.352,140.352, 274.40,143.952, 278.864,143.952z" ></path></svg>