<?xml version="1.0" encoding="utf-8"?> <!-- Generator: IcoMoon.io --> <!DOCTYPE svg PUBLIC "-//W3C//DTD SVG 1.1//EN" "http://www.w3.org/Graphics/SVG/1.1/DTD/svg11.dtd"> <svg fill="#333333" xmlns:xlink="http://www.w3.org/1999/xlink" xmlns="http://www.w3.org/2000/svg" viewBox="0 0 480 448" height="448" width="480"><path d="M 416,160q0-20 -14-34t-34-14l-16,0 l0,96 l 16,0 q 20,0 34-14t 14-34zM0,352l 448,0 q0,26.5 -18.75,45.25t-45.25,18.75l-320,0 q-26.5,0 -45.25-18.75t-18.75-45.25zM 464,160q0,39.75 -28.125,67.875t-67.875,28.125l-16,0 l0,8 q0,23 -16.5,39.5t-39.5,16.5l-176,0 q-23,0 -39.5-16.5t-16.5-39.5l0-184 q0-6.5 4.75-11.25 t 11.25-4.75l 288,0 q 39.75,0 67.875,28.125t 28.125,67.875z"></path></svg>