<?xml version="1.0" encoding="utf-8"?> <!-- Generator: IcoMoon.io --> <!DOCTYPE svg PUBLIC "-//W3C//DTD SVG 1.1//EN" "http://www.w3.org/Graphics/SVG/1.1/DTD/svg11.dtd"> <svg fill="#333333" xmlns:xlink="http://www.w3.org/1999/xlink" xmlns="http://www.w3.org/2000/svg" width="512" height="512" viewBox="0 0 512 512"><path d="M 288.00,32.00c0.00-17.60-14.40-32.00-32.00-32.00s-32.00,14.40-32.00,32.00l0.00,288.00 l-32.00,0.00 l0.00,64.00 l 32.00,0.00 l0.00,96.00 c0.00,17.60, 14.40,32.00, 32.00,32.00s 32.00-14.40, 32.00-32.00l0.00-96.00 l 32.00,0.00 l0.00-64.00 l-32.00,0.00 L 288.00,32.00 zM 96.00,32.00c0.00-17.60-14.40-32.00-32.00-32.00S 32.00,14.40, 32.00,32.00l0.00,160.00 L0.00,192.00 l0.00,64.00 l 32.00,0.00 l0.00,224.00 c0.00,17.60, 14.40,32.00, 32.00,32.00s 32.00-14.40, 32.00-32.00L 96.00,256.00 l 32.00,0.00 l0.00-64.00 L 96.00,192.00 L 96.00,32.00 zM 512.00,128.00l-32.00,0.00 L 480.00,32.00 c0.00-17.60-14.40-32.00-32.00-32.00s-32.00,14.40-32.00,32.00l0.00,96.00 l-32.00,0.00 l0.00,64.00 l 32.00,0.00 l0.00,288.00 c0.00,17.60, 14.40,32.00, 32.00,32.00s 32.00-14.40, 32.00-32.00L 480.00,192.00 l 32.00,0.00 L 512.00,128.00 z" ></path></svg>