<?xml version="1.0" encoding="utf-8"?> <!-- Generator: IcoMoon.io --> <!DOCTYPE svg PUBLIC "-//W3C//DTD SVG 1.1//EN" "http://www.w3.org/Graphics/SVG/1.1/DTD/svg11.dtd"> <svg fill="#333333" xmlns:xlink="http://www.w3.org/1999/xlink" xmlns="http://www.w3.org/2000/svg" viewBox="0 0 500 500" height="500" width="500.00000000000006"><path d="M 203.2,345.050c-17.25,29.9-5.65,54.5, 18.275,68.3s 51.050,11.6, 68.3-18.3c 17.25-29.875, 126.175-296.65, 116.7-302.125 C 397.025,87.45, 220.45,315.15, 203.2,345.050z M 250,155.050c 10.95,0, 21.625,0.95, 32.025,2.7c 10.95-13.7, 23.225-28.8, 35.15-43.175 C 295.875,108.4, 273.4,105.050, 250,105.050c-140.175,0-250,118.2-250,269.1c0,9.3, 0.425,18.575, 1.225,27.625 c 1.225,13.75, 13.5,23.875, 27.125,22.675c 13.75-1.25, 23.9-13.375, 22.675-27.125C 50.35,389.75, 50,381.95, 50,374.15 C 50,251.3, 137.875,155.050, 250,155.050z M 430.475,186.275c-6.975,18.75-14.35,37.85-20.85,54.375C 435.050,277.4, 450,323.475, 450,374.15 c0,7.925-0.35,15.9-1.050,23.625c-1.25,13.75, 8.875,25.9, 22.625,27.175c 0.775,0.075, 1.525,0.1, 2.3,0.1 c 12.775,0, 23.675-9.775, 24.85-22.725C 499.575,393.075, 500,383.6, 500,374.15C 500,300.375, 473.7,234.425, 430.475,186.275z"></path></svg>