<?xml version="1.0" encoding="utf-8"?> <!-- Generator: IcoMoon.io --> <!DOCTYPE svg PUBLIC "-//W3C//DTD SVG 1.1//EN" "http://www.w3.org/Graphics/SVG/1.1/DTD/svg11.dtd"> <svg fill="#333333" xmlns:xlink="http://www.w3.org/1999/xlink" xmlns="http://www.w3.org/2000/svg" width="512" height="512" viewBox="0 0 512 512"><path d="M 416.00,160.00l-32.00,0.00 l0.00-48.00 c0.00-44.183-85.961-80.00-192.00-80.00C 85.961,32.00,0.00,67.817,0.00,112.00l0.00,288.00 c0.00,44.183, 85.961,80.00, 192.00,80.00 c 106.039,0.00, 192.00-35.817, 192.00-80.00l0.00-48.00 l 32.00,0.00 c 52.80,0.00, 96.00-43.20, 96.00-96.00S 468.80,160.00, 416.00,160.00z M 88.028,94.801C 116.999,85.256, 153.923,80.00, 192.00,80.00 s 75.002,5.256, 103.972,14.801c 18.497,6.094, 29.704,12.623, 35.705,17.199c-6.001,4.576-17.208,11.104-35.705,17.199 C 267.002,138.744, 230.077,144.00, 192.00,144.00s-75.001-5.256-103.972-14.801C 69.531,123.104, 58.324,116.576, 52.323,112.00 C 58.324,107.424, 69.531,100.896, 88.028,94.801z M 452.182,284.182C 447.768,288.596, 438.237,296.00, 424.00,296.00l-40.00,0.00 l0.00-80.00 l 40.00,0.00 c 14.237,0.00, 23.768,7.405, 28.182,11.819S 464.00,241.763, 464.00,256.00S 456.596,279.768, 452.182,284.182z" ></path></svg>