<?xml version="1.0" encoding="utf-8"?> <!-- Generator: IcoMoon.io --> <!DOCTYPE svg PUBLIC "-//W3C//DTD SVG 1.1//EN" "http://www.w3.org/Graphics/SVG/1.1/DTD/svg11.dtd"> <svg fill="#333333" xmlns:xlink="http://www.w3.org/1999/xlink" xmlns="http://www.w3.org/2000/svg" viewBox="0 0 480 448" height="448" width="480"><path d="M 160,144q0,20 -14,34t-34,14t-34-14t-14-34t 14-34t 34-14t 34,14t 14,34zM 416,240l0,112 l-352,0 l0-48 l 80-80l 40,40l 128-128zM 440,64l-400,0 q-3.25,0 -5.625,2.375t-2.375,5.625l0,304 q0,3.25 2.375,5.625t 5.625,2.375l 400,0 q 3.25,0 5.625-2.375t 2.375-5.625l0-304 q0-3.25 -2.375-5.625t-5.625-2.375zM 480,72l0,304 q0,16.5 -11.75,28.25t-28.25,11.75l-400,0 q-16.5,0 -28.25-11.75t-11.75-28.25l0-304 q0-16.5 11.75-28.25t 28.25-11.75l 400,0 q 16.5,0 28.25,11.75t 11.75,28.25z"></path></svg>