<?xml version="1.0" encoding="utf-8"?> <!-- Generator: IcoMoon.io --> <!DOCTYPE svg PUBLIC "-//W3C//DTD SVG 1.1//EN" "http://www.w3.org/Graphics/SVG/1.1/DTD/svg11.dtd"> <svg fill="#000000" xmlns:xlink="http://www.w3.org/1999/xlink" xmlns="http://www.w3.org/2000/svg" width="512" height="512" viewBox="0 0 512 512"><path d="M0.00,64.00l0.00,384.00 l 512.00,0.00 L 512.00,64.00 L0.00,64.00 z M 96.00,416.00L 32.00,416.00 l0.00-64.00 l 64.00,0.00 L 96.00,416.00 z M 96.00,288.00L 32.00,288.00 l0.00-64.00 l 64.00,0.00 L 96.00,288.00 z M 96.00,160.00L 32.00,160.00 L 32.00,96.00 l 64.00,0.00 L 96.00,160.00 z M 384.00,416.00L 128.00,416.00 L 128.00,96.00 l 256.00,0.00 L 384.00,416.00 z M 480.00,416.00l-64.00,0.00 l0.00-64.00 l 64.00,0.00 L 480.00,416.00 z M 480.00,288.00l-64.00,0.00 l0.00-64.00 l 64.00,0.00 L 480.00,288.00 z M 480.00,160.00l-64.00,0.00 L 416.00,96.00 l 64.00,0.00 L 480.00,160.00 zM 192.00,160.00L 192.00,352.00L 320.00,256.00 z" ></path></svg>