<?xml version="1.0" encoding="utf-8"?> <!-- Generator: IcoMoon.io --> <!DOCTYPE svg PUBLIC "-//W3C//DTD SVG 1.1//EN" "http://www.w3.org/Graphics/SVG/1.1/DTD/svg11.dtd"> <svg fill="#000000" xmlns:xlink="http://www.w3.org/1999/xlink" xmlns="http://www.w3.org/2000/svg" width="512" height="512" viewBox="0 0 512 512"><path d="M 448.00,128.00L 448.00,64.00 L0.00,64.00 l0.00,352.00 c0.00,17.673, 14.327,32.00, 32.00,32.00l 432.00,0.00 c 26.511,0.00, 48.00-21.489, 48.00-48.00L 512.00,128.00 L 448.00,128.00 z M 416.00,416.00L 32.00,416.00 L 32.00,96.00 l 384.00,0.00 L 416.00,416.00 zM 64.00,160.00L 384.00,160.00L 384.00,192.00L 64.00,192.00zM 256.00,224.00L 384.00,224.00L 384.00,256.00L 256.00,256.00zM 256.00,288.00L 384.00,288.00L 384.00,320.00L 256.00,320.00zM 256.00,352.00L 352.00,352.00L 352.00,384.00L 256.00,384.00zM 64.00,224.00L 224.00,224.00L 224.00,384.00L 64.00,384.00z" ></path></svg>