<?xml version="1.0" encoding="utf-8"?> <!-- Generator: IcoMoon.io --> <!DOCTYPE svg PUBLIC "-//W3C//DTD SVG 1.1//EN" "http://www.w3.org/Graphics/SVG/1.1/DTD/svg11.dtd"> <svg fill="#000000" xmlns:xlink="http://www.w3.org/1999/xlink" xmlns="http://www.w3.org/2000/svg" width="512" height="512" viewBox="0 0 512 512"><path d="M 192.00,293.333c0.00,0.00, 101.972-61.18, 159.383-37.013c 11.901-18.134, 23.624-37.668, 35.101-57.611 C 330.321,184.949, 256.00,197.333, 256.00,197.333s 95.106-57.061, 153.333-39.20c 11.675-21.054, 23.027-41.821, 33.978-61.152 C 396.923,93.847, 352.00,101.333, 352.00,101.333s 59.574-35.744, 113.289-41.799C 482.188,32.104, 497.874,10.594, 512.00,0.00C 231.50,0.00, 64.00,320.00,0.00,512.00 l 32.00,0.00 l 96.00-160.00c0.00,0.00, 32.00,32.00, 128.00,0.00c 22.737-7.579, 45.474-28.626, 67.786-56.967C 267.478,280.756, 192.00,293.333, 192.00,293.333z" ></path></svg>