<?xml version="1.0" encoding="utf-8"?> <!-- Generator: IcoMoon.io --> <!DOCTYPE svg PUBLIC "-//W3C//DTD SVG 1.1//EN" "http://www.w3.org/Graphics/SVG/1.1/DTD/svg11.dtd"> <svg fill="#333333" xmlns:xlink="http://www.w3.org/1999/xlink" xmlns="http://www.w3.org/2000/svg" width="512" height="512" viewBox="0 0 512 512"><path d="M 448.00,224.00l 8.00,0.00 c 13.20,0.00 24.00-10.80 24.00-24.00l0.00-80.00 c0.00-13.20-10.80-24.00-24.00-24.00l-8.00,0.00 L 448.00,0.00 l-64.00,0.00 l 0.00,96.00 l-8.00,0.00 c-13.20,0.00, -24.00,10.80, -24.00,24.00l 0.00,80.00 c 0.00,13.20, 10.80,24.00, 24.00,24.00l 8.00,0.00 l 0.00,288.00 L 448.00,512.00 L 448.00,224.00 z M 384.00,128.00L 448.00,128.00 l 0.00,64.00 l-64.00,0.00 L 384.00,128.00 zM 296.00,416.00c 13.20,0.00 24.00-10.80 24.00-24.00l0.00-80.00 c0.00-13.20-10.80-24.00-24.00-24.00l-8.00,0.00 L 288.00,0.00 l-64.00,0.00 l 0.00,288.00 l-8.00,0.00 c-13.20,0.00, -24.00,10.80, -24.00,24.00l 0.00,80.00 c 0.00,13.20, 10.80,24.00, 24.00,24.00l 8.00,0.00 l 0.00,96.00 l 64.00,0.00 l0.00-96.00 L 296.00,416.00 z M 224.00,320.00l 64.00,0.00 l 0.00,64.00 l-64.00,0.00 L 224.00,320.00 zM 136.00,224.00c 13.20,0.00 24.00-10.80 24.00-24.00l0.00-80.00 c0.00-13.20-10.80-24.00-24.00-24.00l-8.00,0.00 L 128.00,0.00 l-64.00,0.00 l 0.00,96.00 l-8.00,0.00 c-13.20,0.00, -24.00,10.80, -24.00,24.00l 0.00,80.00 c 0.00,13.20, 10.80,24.00, 24.00,24.00l 8.00,0.00 l 0.00,288.00 l 64.00,0.00 L 128.00,224.00 L 136.00,224.00 z M 64.00,128.00l 64.00,0.00 l 0.00,64.00 l-64.00,0.00 L 64.00,128.00 z" ></path></svg>