<?xml version="1.0" encoding="utf-8"?> <!-- Generator: IcoMoon.io --> <!DOCTYPE svg PUBLIC "-//W3C//DTD SVG 1.1//EN" "http://www.w3.org/Graphics/SVG/1.1/DTD/svg11.dtd"> <svg fill="#333333" xmlns:xlink="http://www.w3.org/1999/xlink" xmlns="http://www.w3.org/2000/svg" width="512" height="512" viewBox="0 0 512 512"><path d="M 501.066,157.121l-50.553-50.552c-12.396-12.397-32.685-32.684-45.081-45.082l-50.553-50.552 c-12.396-12.397-34.477-14.583-49.065-4.858L 167.595,98.223c-14.588,9.726-20.109,30.514-12.268,46.195l 35.243,70.487 c 1.077,2.153, 2.323,4.448, 3.695,6.83L 16.00,400.00L0.00,512.00l 96.00,0.00 l0.00-32.00 l 64.00,0.00 l0.00-64.00 l 64.00,0.00 l0.00-64.00l 64.00,0.00 l0.00-35.593 c 3.198,1.906, 6.267,3.608, 9.096,5.022 l 70.485,35.244c 15.683,7.841, 36.47,2.319, 46.195-12.269l 92.147-138.22C 515.65,191.598, 513.462,169.519, 501.066,157.121z M 75.314,427.313l-22.627-22.627l 155.786-155.785l 22.627,22.627L 75.314,427.313z M 458.51,211.882l-22.628,22.628 c-6.223,6.222-16.404,6.222-22.627,0.00L 277.49,98.745c-6.223-6.222-6.223-16.405,0.00-22.627l 22.628-22.628 c 6.223-6.222, 16.404-6.222, 22.627,0.00L 458.51,189.255C 464.733,195.477, 464.733,205.66, 458.51,211.882z" ></path></svg>