<?xml version="1.0" encoding="utf-8"?> <!-- Generator: IcoMoon.io --> <!DOCTYPE svg PUBLIC "-//W3C//DTD SVG 1.1//EN" "http://www.w3.org/Graphics/SVG/1.1/DTD/svg11.dtd"> <svg fill="#333333" xmlns:xlink="http://www.w3.org/1999/xlink" xmlns="http://www.w3.org/2000/svg" width="512" height="512" viewBox="0 0 512 512"><path d="M 267.313,11.314C 261.091,5.092, 248.80,0.00, 240.00,0.00L 48.00,0.00 c-8.80,0.00-16.00,7.20-16.00,16.00l0.00,480.00 c0.00,8.80, 7.20,16.00, 16.00,16.00l 384.00,0.00 c 8.80,0.00, 16.00-7.20, 16.00-16.00L 448.00,208.00 c0.00-8.80-5.091-21.091-11.313-27.313L 267.313,11.314z M 416.00,480.00L 64.00,480.00 L 64.00,32.00 l 175.579,0.00 c 1.458,0.24, 4.204,1.377, 5.405,2.239l 168.778,168.777 c 0.861,1.201, 1.998,3.947, 2.238,5.405L 416.00,480.00 zM 432.00,0.00l-96.00,0.00 c-8.80,0.00-10.909,5.091-4.687,11.313l 105.373,105.373C 442.909,122.909, 448.00,120.80, 448.00,112.00L 448.00,16.00 C 448.00,7.20, 440.80,0.00, 432.00,0.00 z" ></path></svg>