<?xml version="1.0" encoding="utf-8"?> <!-- Generator: IcoMoon.io --> <!DOCTYPE svg PUBLIC "-//W3C//DTD SVG 1.1//EN" "http://www.w3.org/Graphics/SVG/1.1/DTD/svg11.dtd"> <svg fill="#333333" xmlns:xlink="http://www.w3.org/1999/xlink" xmlns="http://www.w3.org/2000/svg" width="512" height="512" viewBox="0 0 512 512"><path d="M 256.00,0.00C 114.615,0.00,0.00,114.615,0.00,256.00s 114.615,256.00, 256.00,256.00s 256.00-114.615, 256.00-256.00S 397.385,0.00, 256.00,0.00z M 256.00,448.00 c-106.039,0.00-192.00-85.961-192.00-192.00c0.00-106.039, 85.961-192.00, 192.00-192.00c 106.039,0.00, 192.00,85.961, 192.00,192.00C 448.00,362.039, 362.039,448.00, 256.00,448.00zM 160.00,256.00A96.00,96.00 12600.00 1,0 352.00,256A96.00,96.00 12600.00 1,0 160.00,256z" ></path></svg>