<?xml version="1.0" encoding="utf-8"?> <!-- Generator: IcoMoon.io --> <!DOCTYPE svg PUBLIC "-//W3C//DTD SVG 1.1//EN" "http://www.w3.org/Graphics/SVG/1.1/DTD/svg11.dtd"> <svg fill="#333333" xmlns:xlink="http://www.w3.org/1999/xlink" xmlns="http://www.w3.org/2000/svg" width="512" height="512" viewBox="0 0 512 512"><path d="M 224.00,64.00l0.00-8.00 c0.00-13.20-10.80-24.00-24.00-24.00l-80.00,0.00 c-13.20,0.00-24.00,10.80-24.00,24.00l0.00,8.00 L0.00,64.00 l0.00,64.00 l 96.00,0.00 l0.00,8.00 c0.00,13.20, 10.80,24.00, 24.00,24.00l 80.00,0.00 c 13.20,0.00, 24.00-10.80, 24.00-24.00l0.00-8.00 l 288.00,0.00 L 512.00,64.00 L 224.00,64.00 z M 128.00,128.00L 128.00,64.00 l 64.00,0.00 l0.00,64.00 L 128.00,128.00 zM 416.00,216.00c0.00-13.20-10.80-24.00-24.00-24.00l-80.00,0.00 c-13.20,0.00-24.00,10.80-24.00,24.00l0.00,8.00 L0.00,224.00 l0.00,64.00 l 288.00,0.00 l0.00,8.00 c0.00,13.20, 10.80,24.00, 24.00,24.00l 80.00,0.00 c 13.20,0.00, 24.00-10.80, 24.00-24.00l0.00-8.00 l 96.00,0.00 l0.00-64.00 l-96.00,0.00 L 416.00,216.00 z M 320.00,288.00l0.00-64.00 l 64.00,0.00 l0.00,64.00 L 320.00,288.00 zM 224.00,376.00c0.00-13.20-10.80-24.00-24.00-24.00l-80.00,0.00 c-13.20,0.00-24.00,10.80-24.00,24.00l0.00,8.00 L0.00,384.00 l0.00,64.00 l 96.00,0.00 l0.00,8.00 c0.00,13.20, 10.80,24.00, 24.00,24.00l 80.00,0.00 c 13.20,0.00, 24.00-10.80, 24.00-24.00l0.00-8.00 l 288.00,0.00 l0.00-64.00 L 224.00,384.00 L 224.00,376.00 z M 128.00,448.00l0.00-64.00 l 64.00,0.00 l0.00,64.00 L 128.00,448.00 z" ></path></svg>