<?xml version="1.0" encoding="utf-8"?> <!-- Generator: IcoMoon.io --> <!DOCTYPE svg PUBLIC "-//W3C//DTD SVG 1.1//EN" "http://www.w3.org/Graphics/SVG/1.1/DTD/svg11.dtd"> <svg fill="#333333" xmlns:xlink="http://www.w3.org/1999/xlink" xmlns="http://www.w3.org/2000/svg" viewBox="0 0 448 448" height="448" width="448"><path d="M 128,312l0,48 q0,10 -7,17t-17,7l-80,0 q-10,0 -17-7t-7-17l0-48 q0-10 7-17t 17-7l 80,0 q 10,0 17,7t 7,17zM 128,184l0,48 q0,10 -7,17t-17,7l-80,0 q-10,0 -17-7t-7-17l0-48 q0-10 7-17t 17-7l 80,0 q 10,0 17,7t 7,17zM 288,312l0,48 q0,10 -7,17t-17,7l-80,0 q-10,0 -17-7t-7-17l0-48 q0-10 7-17t 17-7l 80,0 q 10,0 17,7t 7,17zM 128,56l0,48 q0,10 -7,17t-17,7l-80,0 q-10,0 -17-7t-7-17l0-48 q0-10 7-17t 17-7l 80,0 q 10,0 17,7t 7,17zM 288,184l0,48 q0,10 -7,17t-17,7l-80,0 q-10,0 -17-7t-7-17l0-48 q0-10 7-17t 17-7 l 80,0 q 10,0 17,7t 7,17zM 448,312l0,48 q0,10 -7,17t-17,7l-80,0 q-10,0 -17-7t-7-17l0-48 q0-10 7-17t 17-7l 80,0 q 10,0 17,7t 7,17zM 288,56l0,48 q0,10 -7,17t-17,7l-80,0 q-10,0 -17-7t-7-17l0-48 q0-10 7-17t 17-7l 80,0 q 10,0 17,7t 7,17zM 448,184l0,48 q0,10 -7,17t-17,7l-80,0 q-10,0 -17-7t-7-17l0-48 q0-10 7-17t 17-7l 80,0 q 10,0 17,7t 7,17zM 448,56l0,48 q0,10 -7,17t-17,7l-80,0 q-10,0 -17-7t-7-17l0-48 q0-10 7-17t 17-7l 80,0 q 10,0 17,7t 7,17z"></path></svg>