<?xml version="1.0" encoding="utf-8"?> <!-- Generator: IcoMoon.io --> <!DOCTYPE svg PUBLIC "-//W3C//DTD SVG 1.1//EN" "http://www.w3.org/Graphics/SVG/1.1/DTD/svg11.dtd"> <svg fill="#333333" xmlns:xlink="http://www.w3.org/1999/xlink" xmlns="http://www.w3.org/2000/svg" viewBox="0 0 484 484" height="484" width="484"><path d="M 220,374A22,22 360 1 1 264,374A22,22 360 1 1 220,374zM 198,308A44,44 360 1 1 286,308A44,44 360 1 1 198,308zM 418,176l-44,0 L 374,132 c0-72.886-59.114-132-132-132C 176.638,0, 122.738,47.63, 112.222,110L 154,110l 3.124,0 C 166.914,72.116, 201.036,44, 242,44c 48.598,0, 88,39.402, 88,88l0,44 L 66,176 c-24.288,0-44,19.712-44,44l0,220 c0,24.288, 19.712,44, 44,44l 352,0 c 24.288,0, 44-19.712, 44-44L 462,220 C 462,195.712, 442.288,176, 418,176z M 418,440L 66,440 L 66,220 l 352,0 L 418,440 z"></path></svg>